<svg width="17" height="23" viewBox="0 0 17 23" fill="none" xmlns="http://www.w3.org/2000/svg">
<path d="M9.64951 23C6.65419 23 3.96207 21.0929 2.85031 18.1892L0.066315 10.8962C-0.218516 10.1392 0.461404 9.38208 1.20564 9.63125L1.9315 9.88042C2.44604 10.0529 2.86869 10.465 3.07083 10.9921L4.36635 14.375H5.05546V3.11458C5.05546 2.45333 5.56999 1.91667 6.20397 1.91667C6.83795 1.91667 7.35249 2.45333 7.35249 3.11458V11.5H8.2713V1.19792C8.2713 0.536667 8.78583 0 9.41981 0C10.0538 0 10.5683 0.536667 10.5683 1.19792V11.5H11.4871V2.63542C11.4871 1.97417 12.0017 1.4375 12.6356 1.4375C13.2696 1.4375 13.7842 1.97417 13.7842 2.63542V11.5H14.703V5.51042C14.703 4.84917 15.2175 4.3125 15.8515 4.3125C16.4855 4.3125 17 4.84917 17 5.51042V15.3333C17 19.5692 13.7107 23 9.64951 23Z" fill="#8484FF"/>
</svg>
