<svg width="36" height="36" viewBox="0 0 36 36" fill="none" xmlns="http://www.w3.org/2000/svg">
<path d="M18 0C8.064 0 0 8.064 0 18C0 27.936 8.064 36 18 36C27.936 36 36 27.936 36 18C36 8.064 27.936 0 18 0ZM18 7.2C21.474 7.2 24.3 10.026 24.3 13.5C24.3 16.974 21.474 19.8 18 19.8C14.526 19.8 11.7 16.974 11.7 13.5C11.7 10.026 14.526 7.2 18 7.2ZM18 32.4C14.346 32.4 10.026 30.924 6.948 27.216C9.99 24.84 13.824 23.4 18 23.4C22.176 23.4 26.01 24.84 29.052 27.216C25.974 30.924 21.654 32.4 18 32.4Z" fill="black"/>
<path d="M18 0C8.064 0 0 8.064 0 18C0 27.936 8.064 36 18 36C27.936 36 36 27.936 36 18C36 8.064 27.936 0 18 0ZM18 7.2C21.474 7.2 24.3 10.026 24.3 13.5C24.3 16.974 21.474 19.8 18 19.8C14.526 19.8 11.7 16.974 11.7 13.5C11.7 10.026 14.526 7.2 18 7.2ZM18 32.4C14.346 32.4 10.026 30.924 6.948 27.216C9.99 24.84 13.824 23.4 18 23.4C22.176 23.4 26.01 24.84 29.052 27.216C25.974 30.924 21.654 32.4 18 32.4Z" fill="url(#paint0_linear_48_883)"/>
<path d="M18 0C8.064 0 0 8.064 0 18C0 27.936 8.064 36 18 36C27.936 36 36 27.936 36 18C36 8.064 27.936 0 18 0ZM18 7.2C21.474 7.2 24.3 10.026 24.3 13.5C24.3 16.974 21.474 19.8 18 19.8C14.526 19.8 11.7 16.974 11.7 13.5C11.7 10.026 14.526 7.2 18 7.2ZM18 32.4C14.346 32.4 10.026 30.924 6.948 27.216C9.99 24.84 13.824 23.4 18 23.4C22.176 23.4 26.01 24.84 29.052 27.216C25.974 30.924 21.654 32.4 18 32.4Z" fill="url(#paint1_linear_48_883)"/>
<defs>
<linearGradient id="paint0_linear_48_883" x1="18" y1="0" x2="18" y2="36" gradientUnits="userSpaceOnUse">
<stop stop-color="#040494"/>
<stop offset="1" stop-color="#0606FA"/>
</linearGradient>
<linearGradient id="paint1_linear_48_883" x1="18" y1="0" x2="18" y2="36" gradientUnits="userSpaceOnUse">
<stop stop-color="#0606FA"/>
<stop offset="1" stop-color="#8484FF"/>
</linearGradient>
</defs>
</svg>
