<svg width="34" height="45" viewBox="0 0 34 45" fill="none" xmlns="http://www.w3.org/2000/svg">
<mask id="mask0_48_873" style="mask-type:alpha" maskUnits="userSpaceOnUse" x="0" y="0" width="34" height="43">
<path d="M1.80327 36.5C5.80327 41.7 13.4699 42.6667 16.8033 42.5C24.4033 42.5 28.9699 39.1667 30.3032 37.5C29.1032 37.9 28.1366 37.6667 27.8032 37.5C27.8032 34 32.3032 36 33.3032 29.5C34.1032 24.3 31.6366 19.6667 30.3032 18C30.3032 19 29.9032 21 28.3032 21C26.7032 21 26.6366 19.6667 26.8032 19C29.6032 10.2 20.3032 2.66667 15.3032 0C15 5.5 14 6.92454 11.8032 10C6.80317 17 11.3032 21.5 7.30322 23C4.10322 24.2 3.63656 20.1667 3.80322 18C3.13657 18.1667 1.50327 19.9 0.303274 25.5C-1.19673 32.5 3.30327 33 4.30327 36C5.10327 38.4 2.96994 37.3333 1.80327 36.5Z" fill="#F83001"/>
<path d="M1.80327 36.5C5.80327 41.7 13.4699 42.6667 16.8033 42.5C24.4033 42.5 28.9699 39.1667 30.3032 37.5C29.1032 37.9 28.1366 37.6667 27.8032 37.5C27.8032 34 32.3032 36 33.3032 29.5C34.1032 24.3 31.6366 19.6667 30.3032 18C30.3032 19 29.9032 21 28.3032 21C26.7032 21 26.6366 19.6667 26.8032 19C29.6032 10.2 20.3032 2.66667 15.3032 0C15 5.5 14 6.92454 11.8032 10C6.80317 17 11.3032 21.5 7.30322 23C4.10322 24.2 3.63656 20.1667 3.80322 18C3.13657 18.1667 1.50327 19.9 0.303274 25.5C-1.19673 32.5 3.30327 33 4.30327 36C5.10327 38.4 2.96994 37.3333 1.80327 36.5Z" fill="url(#paint0_linear_48_873)"/>
</mask>
<g mask="url(#mask0_48_873)">
<path d="M1.80327 36.5C5.80327 41.7 13.4699 42.6667 16.8033 42.5C24.4033 42.5 28.9699 39.1667 30.3032 37.5C29.1032 37.9 28.1366 37.6667 27.8032 37.5C27.8032 34 32.3032 36 33.3032 29.5C34.1032 24.3 31.6366 19.6667 30.3032 18C30.3032 19 29.9032 21 28.3032 21C26.7032 21 26.6366 19.6667 26.8032 19C29.6032 10.2 20.3032 2.66667 15.3032 0C15 5.5 14 6.92454 11.8032 10C6.80317 17 11.3032 21.5 7.30322 23C4.10322 24.2 3.63656 20.1667 3.80322 18C3.13657 18.1667 1.50327 19.9 0.303274 25.5C-1.19673 32.5 3.30327 33 4.30327 36C5.10327 38.4 2.96994 37.3333 1.80327 36.5Z" fill="#F83001"/>
<path d="M1.80327 36.5C5.80327 41.7 13.4699 42.6667 16.8033 42.5C24.4033 42.5 28.9699 39.1667 30.3032 37.5C29.1032 37.9 28.1366 37.6667 27.8032 37.5C27.8032 34 32.3032 36 33.3032 29.5C34.1032 24.3 31.6366 19.6667 30.3032 18C30.3032 19 29.9032 21 28.3032 21C26.7032 21 26.6366 19.6667 26.8032 19C29.6032 10.2 20.3032 2.66667 15.3032 0C15 5.5 14 6.92454 11.8032 10C6.80317 17 11.3032 21.5 7.30322 23C4.10322 24.2 3.63656 20.1667 3.80322 18C3.13657 18.1667 1.50327 19.9 0.303274 25.5C-1.19673 32.5 3.30327 33 4.30327 36C5.10327 38.4 2.96994 37.3333 1.80327 36.5Z" fill="url(#paint1_linear_48_873)"/>
<path d="M1.80327 36.5C5.80327 41.7 13.4699 42.6667 16.8033 42.5C24.4033 42.5 28.9699 39.1667 30.3032 37.5C29.1032 37.9 28.1366 37.6667 27.8032 37.5C27.8032 34 32.3032 36 33.3032 29.5C34.1032 24.3 31.6366 19.6667 30.3032 18C30.3032 19 29.9032 21 28.3032 21C26.7032 21 26.6366 19.6667 26.8032 19C29.6032 10.2 20.3032 2.66667 15.3032 0C15 5.5 14 6.92454 11.8032 10C6.80317 17 11.3032 21.5 7.30322 23C4.10322 24.2 3.63656 20.1667 3.80322 18C3.13657 18.1667 1.50327 19.9 0.303274 25.5C-1.19673 32.5 3.30327 33 4.30327 36C5.10327 38.4 2.96994 37.3333 1.80327 36.5Z" fill="url(#paint2_linear_48_873)"/>
<path d="M12.5 42.5H16.8033H18.8032C26.0032 38.9 28.4699 34 28.8032 32C27.3032 34 24.8032 32 26.8032 30C28.4032 28.4 28.1366 26 27.8032 25C27.0032 26.2 25.4699 26.5 24.8032 26.5C22.4032 26.5 22.1366 24.5 22.3032 23.5C24.3032 13.9 19.8032 8.83333 17.3032 7.5C17.8032 9.5 16.8033 12.5 13.3033 16.5C9.80327 20.5 13.3033 25 9.80322 27.5C7.00318 29.5 4.96991 27.6667 4.30327 26.5C3.30327 30 4.80327 36 7.80327 37.5C10.2033 38.7 11.6667 41.3333 12.5 42.5Z" fill="#FF993E"/>
<path d="M12.5 42.5H16.8033H18.8032C26.0032 38.9 28.4699 34 28.8032 32C27.3032 34 24.8032 32 26.8032 30C28.4032 28.4 28.1366 26 27.8032 25C27.0032 26.2 25.4699 26.5 24.8032 26.5C22.4032 26.5 22.1366 24.5 22.3032 23.5C24.3032 13.9 19.8032 8.83333 17.3032 7.5C17.8032 9.5 16.8033 12.5 13.3033 16.5C9.80327 20.5 13.3033 25 9.80322 27.5C7.00318 29.5 4.96991 27.6667 4.30327 26.5C3.30327 30 4.80327 36 7.80327 37.5C10.2033 38.7 11.6667 41.3333 12.5 42.5Z" fill="url(#paint3_linear_48_873)"/>
<path d="M12.5 42.5H16.8033H18.8032C26.0032 38.9 28.4699 34 28.8032 32C27.3032 34 24.8032 32 26.8032 30C28.4032 28.4 28.1366 26 27.8032 25C27.0032 26.2 25.4699 26.5 24.8032 26.5C22.4032 26.5 22.1366 24.5 22.3032 23.5C24.3032 13.9 19.8032 8.83333 17.3032 7.5C17.8032 9.5 16.8033 12.5 13.3033 16.5C9.80327 20.5 13.3033 25 9.80322 27.5C7.00318 29.5 4.96991 27.6667 4.30327 26.5C3.30327 30 4.80327 36 7.80327 37.5C10.2033 38.7 11.6667 41.3333 12.5 42.5Z" fill="url(#paint4_linear_48_873)"/>
<path d="M12.3032 39C13.5 40.5 14 41 15.3032 41.5C16.9032 41.9 18.3032 41.6667 18.8032 41.5C20.5 40.9344 24.5032 34.8 23.3032 34C22.1032 33.2 22.1366 31.6667 22.3032 31C17.5032 31 17.9699 24 18.8032 20.5C17.3032 21.1667 14.1032 23.7 13.3032 28.5C12.5032 33.3 10.3032 33.8333 9.30322 33.5C9.63656 34.8333 11.0559 37.4366 12.3032 39Z" fill="#FDFDE1"/>
<path d="M12.3032 39C13.5 40.5 14 41 15.3032 41.5C16.9032 41.9 18.3032 41.6667 18.8032 41.5C20.5 40.9344 24.5032 34.8 23.3032 34C22.1032 33.2 22.1366 31.6667 22.3032 31C17.5032 31 17.9699 24 18.8032 20.5C17.3032 21.1667 14.1032 23.7 13.3032 28.5C12.5032 33.3 10.3032 33.8333 9.30322 33.5C9.63656 34.8333 11.0559 37.4366 12.3032 39Z" fill="url(#paint5_linear_48_873)"/>
</g>
<ellipse cx="17" cy="36.5" rx="8.5" ry="5" transform="rotate(90 17 36.5)" fill="url(#paint6_radial_48_873)"/>
<defs>
<linearGradient id="paint0_linear_48_873" x1="16.7297" y1="0" x2="16.7297" y2="42.5173" gradientUnits="userSpaceOnUse">
<stop stop-color="#0606FA"/>
<stop offset="1" stop-color="#040494"/>
</linearGradient>
<linearGradient id="paint1_linear_48_873" x1="16.7297" y1="0" x2="16.7297" y2="42.5173" gradientUnits="userSpaceOnUse">
<stop stop-color="#0606FA"/>
<stop offset="1" stop-color="#040494"/>
</linearGradient>
<linearGradient id="paint2_linear_48_873" x1="16.7297" y1="0" x2="16.7297" y2="42.5173" gradientUnits="userSpaceOnUse">
<stop stop-color="#8484FF"/>
<stop offset="1" stop-color="#0606FA"/>
</linearGradient>
<linearGradient id="paint3_linear_48_873" x1="16.399" y1="7.5" x2="16.399" y2="42.5" gradientUnits="userSpaceOnUse">
<stop stop-color="#8686FF"/>
<stop offset="1" stop-color="#505099"/>
</linearGradient>
<linearGradient id="paint4_linear_48_873" x1="16.399" y1="7.5" x2="16.399" y2="42.5" gradientUnits="userSpaceOnUse">
<stop stop-color="#0606FA"/>
<stop offset="1" stop-color="#8484FF"/>
</linearGradient>
<linearGradient id="paint5_linear_48_873" x1="16.4204" y1="20.5" x2="16.4204" y2="42.7209" gradientUnits="userSpaceOnUse">
<stop stop-color="#CBCBFF"/>
<stop offset="0.5" stop-color="#D7D7D7"/>
<stop offset="1" stop-color="white"/>
</linearGradient>
<radialGradient id="paint6_radial_48_873" cx="0" cy="0" r="1" gradientUnits="userSpaceOnUse" gradientTransform="translate(17 36.5) rotate(90) scale(5 8.5)">
<stop stop-color="white"/>
<stop offset="1" stop-color="white" stop-opacity="0"/>
</radialGradient>
</defs>
</svg>
